<svg width="65" height="64" fill="none" xmlns="http://www.w3.org/2000/svg"><g clip-path="url('#clip0_2072_2047')" fill-rule="evenodd" clip-rule="evenodd"><path d="M39.673 6.027a77.333 77.333 0 0 0-13.333 1.92c-.667 0-5.52.72-6.08.96a.746.746 0 0 0-.533.986c.346 1.014 8.746 0 20.346-.933 3.467-.453 5.867-1.173 9.12-1.813a27.332 27.332 0 0 0 5.04-1.227.828.828 0 0 0-.4-1.147c-.48-.506-1.013-.213-14.16 1.254Z" fill="#343434"/><path d="M57.673 42.667v-30.96c0-.267.4-1.334-.773-1.334-.24 0-4.4.827-4.667.88l-8.72.694c-5.546.533-11.12.72-16.666 1.093-7.547.533-8 1.013-11.094.613-1.146-.16-2.293-.293-2.666-.986A2.4 2.4 0 0 1 13.753 10c2.747-3.36 8.374-4.667 12.614-5.707C36.153 1.92 39.513 2.8 46.393 2.347c3.92-.267 6.4-.534 6.134-1.734A.771.771 0 0 0 51.593 0c-9.52 2.053-14.586-2.027-33.36 3.707C8.5 6.8 5.833 17.04 18.26 16.773a191.995 191.995 0 0 0-1.2 39.6c0 2.16 0 3.467.8 3.734 1.573.453 1.253-2 1.173-3.734 0-15.573.72-10.373.747-29.333 0-11.573 0-10.48.267-10.507 8.56-1.226 26.666-2.266 35.706-4.133-.8 53.333-.293 21.467-.186 35.973.027.742-.026 1.484-.16 2.214-.32 2-22.747 7.866-27.654 9.066-6.266 1.574-11.093 2.027-17.013-.693-2.667-5.547-1.653-34.533-1.147-40a.777.777 0 0 0-1.546-.16c-.667 5.493-2.4 33.573-.214 40.4.587 1.867 1.387 2.24 3.04 2.933A21.707 21.707 0 0 0 21.833 64 134.637 134.637 0 0 0 48.5 56.693a54.792 54.792 0 0 0 6.853-2.32c4.507-2.426 2.374-6.96 2.32-11.706Z" fill="#343434"/><path d="M27.167 35.227c1.68.453 3.44 0 15.173-2.054 1.76-.32 4.48-.48 5.333-2.16.504-1.586.605-3.272.294-4.906 0-1.28 1.52-6.987-1.707-6.854-.16 0-19.253 2.987-20.453 3.014a.88.88 0 0 0-.88.88c0 .693.24-.72 0 3.573.213 2.987-1.254 7.493 2.24 8.507ZM26.927 24c2.026 0-3.467.16 19.173-1.787-.613 8.774-.213 7.227-4.187 8-13.093 2.667-14.026 3.254-14.586 2.667-.56-.587-.16-4.613-.347-6.213 0-.16-.08-1.734-.053-2.667ZM45.247 40a1.04 1.04 0 0 0-1.04-1.547c-.774 0-2.667.214-3.147.214a46.35 46.35 0 0 0-12.24 1.413c-1.653-.187-1.28.987-.427 1.413 2.134 1.814 16.294-.88 16.854-1.493ZM28.793 52.107a8.322 8.322 0 0 0 1.814-.187 50.991 50.991 0 0 0 6.08-.507c3.173-.533 6.133-1.653 8.986-1.893a.907.907 0 0 0 0-1.787C38.42 47.12 28.5 50.4 28.287 51.013c-.214.614.133.907.506 1.094Z" fill="#036"/></g><defs><clipPath id="clip0_2072_2047"><path fill="#fff" transform="translate(.5)" d="M0 0h64v64H0z"/></clipPath></defs></svg>