<svg width="65" height="64" fill="none" xmlns="http://www.w3.org/2000/svg"><path fill-rule="evenodd" clip-rule="evenodd" d="M47.16 25.342c.192-.663.33-1.34.415-2.023.026-.497.026-.994 0-1.49a5.175 5.175 0 0 0-.86-3.655 5.512 5.512 0 0 0-3.142-2.202 17.938 17.938 0 0 0-9.657 1.677 18.209 18.209 0 0 0-6.347 4.685 66.565 66.565 0 0 0-5.684 7.427.822.822 0 0 0-.497.133 19.605 19.605 0 0 1-4.277 2.05c-1.453.5-2.982.77-4.525.798a27.012 27.012 0 0 1-3.2-.612 4.854 4.854 0 0 0-2.18.16 5.684 5.684 0 0 0-2.125 1.464c-.67.78-1.28 1.607-1.822 2.475A13.45 13.45 0 0 0 .5 41.553a4.35 4.35 0 0 0 .606 2.24c.402.681.983 1.25 1.684 1.647l2.925 1.81a.898.898 0 0 0 .661.157.902.902 0 0 0 .581-.344.853.853 0 0 0 .14-.641.875.875 0 0 0-.36-.556l-2.76-1.944c-.966-.825-1.297-1.517-1.214-2.182.136-.522.38-1.01.717-1.438.386-.532.856-1.065 1.325-1.65a22.02 22.02 0 0 0 1.904 2.023c.317.318.669.604 1.048.852.365.27.753.51 1.16.718.91.506 1.848.932 2.758 1.385l-5.518 7.772a.75.75 0 0 0 .193 1.065.763.763 0 0 0 .91 0 .671.671 0 0 0 .077.463c.08.14.21.25.365.31a34.47 34.47 0 0 0 2.76 2.661c.47.335.958.646 1.462.932.501.29 1.027.54 1.573.745 1.274.497 2.595.871 3.945 1.118a.941.941 0 0 0 .694-.035.89.89 0 0 0 .465-.497.825.825 0 0 0-.061-.648.876.876 0 0 0-.518-.417c-1.187-.586-2.207-1.304-3.311-1.97-1.104-.665-1.463-.905-2.208-1.304-1.324-.666-2.76-1.172-4.056-1.837a.708.708 0 0 0-.69 0l4.829-6.229a.693.693 0 0 0 .193.266c1.076.932 1.987 1.997 3.036 2.928.719.637 1.484 1.224 2.29 1.757a22.4 22.4 0 0 0 4.497 2.183c.213.08.45.08.663 0l-.47.586c-1.296 1.837-2.842 3.54-4.056 5.084a.836.836 0 0 0-.255.599c0 .224.092.44.255.599.17.16.398.248.635.248s.465-.089.635-.248c.745-.772 1.517-1.677 2.345-2.662a.73.73 0 0 0-.314.772.731.731 0 0 0 .121.266 9.411 9.411 0 0 0 2.76 3.514 9.449 9.449 0 0 0 2.345 1.278 22.02 22.02 0 0 0 3.78 1.064c.635.213 4.995-4.791 5.077-4.898a8.043 8.043 0 0 0 1.6-3.354 4.22 4.22 0 0 0-.22-1.996c-.331-1.012-1.049-2.05-1.242-2.902a17.014 17.014 0 0 1-.69-4.924 15.037 15.037 0 0 1 .745-4.978.541.541 0 0 0 0-.213 95.24 95.24 0 0 0 6.568-7.134 21.828 21.828 0 0 0 4.277-8.252Zm-12.196-5.005a14.738 14.738 0 0 1 7.782-1.517c1.159.293 1.876 1.225 1.931 3.088.055.451.055.907 0 1.358a13.2 13.2 0 0 1-.276 1.437 16.992 16.992 0 0 1-2.152 5.084c.055-.682.055-1.367 0-2.05a7.46 7.46 0 0 0-.58-2.661 5.757 5.757 0 0 0-1.736-2.146 6.035 6.035 0 0 0-2.568-1.128 10.856 10.856 0 0 0-6.153.905c1.1-.992 2.37-1.794 3.752-2.37ZM10.737 40.09c-.33-.304-.68-.589-1.048-.852-.36-.264-.738-.504-1.132-.718a28.01 28.01 0 0 0-2.566-1.252c.38-.57.805-1.113 1.27-1.623.28-.3.617-.544.993-.72a1.86 1.86 0 0 1 .772 0 21.31 21.31 0 0 0 3.726.374 17.01 17.01 0 0 0 5.187-1.491c.58-.266 1.131-.586 1.683-.905l-6.705 9.317c-.745-.719-1.407-1.438-2.18-2.13Zm12.72 11.287a33.746 33.746 0 0 1-3.2-2.662c-.717-.586-1.435-1.198-2.235-1.73a29.172 29.172 0 0 0-4.36-2.263h-.248l9.575-12.298a96.629 96.629 0 0 1 6.788-8.252v-.213.133a.746.746 0 0 0 .424.406.798.798 0 0 0 .597-.007 11.027 11.027 0 0 1 4.966-.266 5.48 5.48 0 0 1 1.987.692c.58.287 1.059.731 1.38 1.278.43.703.711 1.48.828 2.289.12.883.175 1.772.165 2.662a.826.826 0 0 0 .086.49.866.866 0 0 0 .356.362c-2.539 3.354-5.74 6.389-8.278 9.53-2.539 3.14-5.519 6.867-8.416 10.647a.721.721 0 0 0-.07-.465.76.76 0 0 0-.344-.333Zm8.03 10.089a.934.934 0 0 0-.165.532c-1.186-.639-2.4-1.437-3.67-2.236-.428-.27-.87-.519-1.324-.745-.442-.267-.911-.453-1.352-.72a7.968 7.968 0 0 1-1.518-1.144.761.761 0 0 0-.498-.308.799.799 0 0 0-.578.122l1.876-2.29 1.518-1.783a.645.645 0 0 0 .248.506c.607.798 1.104 1.65 1.766 2.422.274.336.579.648.91.932.333.278.683.536 1.05.772a18.665 18.665 0 0 0 2.758 1.517.938.938 0 0 0 .635.133c-.469.826-1.104 1.598-1.655 2.29Zm2.76-3.727-.276.4a1.034 1.034 0 0 0-.331-.507c-.745-.692-1.325-1.464-2.015-2.182-.452-.486-.941-.94-1.462-1.358a25.007 25.007 0 0 0-3.008-1.81.898.898 0 0 0-.69-.16c2.567-3.061 5.133-6.202 7.285-8.651a14.663 14.663 0 0 0-.469 2.183 17.265 17.265 0 0 0 .193 5.723c.249.931.966 2.076 1.38 3.14.133.239.209.503.22.773a5.196 5.196 0 0 1-.827 2.449Z" fill="#343434"/><path fill-rule="evenodd" clip-rule="evenodd" d="M52.266 35.67c1.545-2.183 3.09-4.339 4.387-6.628a34.693 34.693 0 0 0 2.29-4.898c.943-3.11 1.17-6.38.662-9.583a100.828 100.828 0 0 0-3.421-13.31.746.746 0 0 0-.306-.428.794.794 0 0 0-.522-.13.816.816 0 0 0-.252-.468.87.87 0 0 0-.493-.225c-3.255.094-6.5.397-9.713.905-2.238.364-4.43.953-6.54 1.757a25.435 25.435 0 0 0-5.822 3.327 69.857 69.857 0 0 0-7.23 6.762c-1.407 1.49-2.897 2.955-4.276 4.472a38.321 38.321 0 0 0-2.76 3.22.783.783 0 0 0-.21.533.783.783 0 0 0 .54.741.827.827 0 0 0 .753-.12.777.777 0 0 0 .242-.301 34.859 34.859 0 0 1 2.76-2.875c1.517-1.384 3.145-2.662 4.662-4.046a89.292 89.292 0 0 1 7.202-6.15 25.424 25.424 0 0 1 5.243-3.114c1.86-.834 3.8-1.485 5.795-1.943A73.057 73.057 0 0 1 54.61 1.73a112.398 112.398 0 0 1 2.29 13.124 19.376 19.376 0 0 1-.883 8.385 33.594 33.594 0 0 1-2.042 4.525c-1.186 2.263-2.51 4.446-3.89 6.628a48.661 48.661 0 0 1-3.09 4.5 50.457 50.457 0 0 1-3.422 4.152.863.863 0 0 0-.258.612c0 .229.092.448.258.612a.9.9 0 0 0 .62.246.9.9 0 0 0 .621-.246 56.278 56.278 0 0 0 3.946-4.126c1.214-1.437 2.373-2.875 3.505-4.472Z" fill="#343434"/><path fill-rule="evenodd" clip-rule="evenodd" d="M64.048 29.282c-.47-1.73-1.159-3.434-1.656-4.925a.777.777 0 0 0-.37-.455.826.826 0 0 0-.595-.078.77.77 0 0 0-.47.343.722.722 0 0 0-.082.563c.33 1.517.855 3.247 1.131 4.95a9.557 9.557 0 0 1 0 3.062 7.552 7.552 0 0 1-.717 2.183c-.552 1.171-1.242 2.263-1.877 3.38a45.684 45.684 0 0 1-4.028 6.39c-2.263 3.167-4.691 6.228-6.981 9.396a.854.854 0 0 0 .193 1.198.894.894 0 0 0 .655.17.905.905 0 0 0 .586-.33c2.953-3.487 6.264-6.761 9.023-10.408a38.281 38.281 0 0 0 3.229-5.111c.58-1.225 1.27-2.422 1.738-3.7a9.633 9.633 0 0 0 .663-2.928 11.58 11.58 0 0 0-.442-3.7ZM5.108 22.414l6.07-7.427c1.077-1.49 2.126-3.221 3.367-4.738.422-.586.902-1.13 1.435-1.624.465-.382.998-.68 1.573-.879 1.049-.399 2.18-.612 3.311-.931 1.849-.56 3.56-1.225 5.353-1.677a17.11 17.11 0 0 1 3.56-.56.816.816 0 0 0 .556-.216.76.76 0 0 0 .244-.529.785.785 0 0 0-.242-.538.842.842 0 0 0-.558-.234 21.239 21.239 0 0 0-3.946.24c-1.876.266-3.67.719-5.519 1.065-1.235.177-2.46.417-3.67.718a7.927 7.927 0 0 0-2.566 1.358 14.567 14.567 0 0 0-2.51 2.795c-.994 1.41-1.767 2.981-2.76 4.366-.993 1.384-1.104 2.103-1.849 3.14a134.833 134.833 0 0 1-3.256 4.553.84.84 0 0 0-.175.632.832.832 0 0 0 .34.566.933.933 0 0 0 1.242-.08Z" fill="#036"/></svg>