<svg width="64" height="64" fill="none" xmlns="http://www.w3.org/2000/svg"><path d="M31.796 10.277a.935.935 0 0 0 .935-.906c.286-1.133.51-2.28.667-3.438.04-.763.04-1.528 0-2.291A9.286 9.286 0 0 0 32.731.55a.773.773 0 0 0-.908-.533c-.213 0-.56.213-.828.826a25.11 25.11 0 0 0-.56 2.665c-.04.763-.04 1.528 0 2.291 0 1.173.374 2.265.534 3.411a.93.93 0 0 0 .827 1.066ZM16.019 16.672a.932.932 0 0 0 0-1.306 22.632 22.632 0 0 0-2.67-3.41c-.694-.64-1.521-1.12-2.269-1.706L8.944 9.184a4.996 4.996 0 0 0-.934-.453c-.748 0-1.068.213-1.121.533a.638.638 0 0 0 0 .613A29.873 29.873 0 0 0 9.29 12.54c.694.613 1.335 1.28 2.083 1.84.747.559 2.296 1.465 3.39 2.317a.936.936 0 0 0 1.255-.026ZM10.146 31.46a14.975 14.975 0 0 0-3.925-.452c-.734.004-1.467.075-2.189.213-.978.271-1.979.45-2.99.533a.827.827 0 0 0-1.035.903.799.799 0 0 0 .608.67c1.25.594 2.62.895 4.004.878a12.54 12.54 0 0 0 2.243-.24c1.148-.213 2.162-.586 3.123-.666A.962.962 0 0 0 11 32.447a.931.931 0 0 0-.854-.986ZM56.437 8.012a.828.828 0 0 0-1.148 0c-1.014.56-2.029 1.013-3.016 1.679-.4.27-.784.563-1.148.88l-1.015 1.012c-.774.852-1.468 1.732-2.215 2.664a.905.905 0 0 0 .64 1.56c.238 0 .468-.091.641-.254 1.014-.586 1.975-1.12 2.937-1.785l1.174-.853c.373-.31.721-.649 1.041-1.013.775-.852 1.389-1.785 2.11-2.664a.799.799 0 0 0 0-1.226ZM61.537 31.46c-.32 0-.614-.133-.935-.16-.444-.039-.89-.039-1.334 0-1.175.16-2.216.56-3.364.827a.935.935 0 0 0-.777.92.931.931 0 0 0 .777.919c1.151.244 2.32.395 3.497.453a5.78 5.78 0 0 0 1.361-.187c.31-.073.614-.171.908-.293a7.772 7.772 0 0 0 1.789-.72c.347-.32.587-.56.534-.852.08-.826-1.068-.666-2.456-.906Z" fill="#036"/><path d="M40.046 16.006a17.864 17.864 0 0 0-12.468-1.546 18.695 18.695 0 0 0-8.446 5.07 18.642 18.642 0 0 0-4.688 8.653 16.385 16.385 0 0 0 0 6.928 17.17 17.17 0 0 0 2.67 6.289c.385.547.823 1.056 1.307 1.519.913.85 1.948 1.56 3.07 2.105.1.383.154.776.16 1.172v3.625a4.184 4.184 0 0 0-1.521 2.13 5.08 5.08 0 0 0-.16 2.372c.08.648.328 1.264.72 1.786.276.331.6.618.962.852a4.604 4.604 0 0 0-1.015 2.665 3.564 3.564 0 0 0 .988 2.931 5.076 5.076 0 0 0 2.483 1.226c1.208.2 2.435.262 3.657.186.986.003 1.97-.095 2.937-.293a.853.853 0 0 0 .267-.72.852.852 0 0 0-.427-.639 6.918 6.918 0 0 0-1.175 0h-1.602a15.676 15.676 0 0 1-3.097-.32 2.939 2.939 0 0 1-1.415-.825 1.356 1.356 0 0 1-.24-1.173 2.662 2.662 0 0 1 2.056-2.345c.8 0 2.35.4 4.191.533.685.04 1.371.04 2.056 0h1.815c1.43-.238 2.847-.55 4.245-.932l.72-.187c.029.186.029.374 0 .56.01.644-.099 1.285-.32 1.891-.47.84-1.2 1.504-2.082 1.892a3.26 3.26 0 0 1-2.67.56.963.963 0 0 0-1.254.426.931.931 0 0 0 .427 1.226 5.162 5.162 0 0 0 4.351-.4 6.779 6.779 0 0 0 3.498-2.85 7.076 7.076 0 0 0 .614-3.358 3.38 3.38 0 0 0-.775-2.025c.385-.324.71-.711.962-1.146a2.66 2.66 0 0 0 .293-1.652 4.047 4.047 0 0 0-1.842-2.878c0-.88-.187-1.865-.16-2.825a3.04 3.04 0 0 1 0-.692 5.986 5.986 0 0 0 1.628-.826c.881-.64 1.79-1.28 2.67-1.999a13.87 13.87 0 0 0 1.629-1.679 18.902 18.902 0 0 0 3.39-7.487 17.235 17.235 0 0 0 0-8.34 15.98 15.98 0 0 0-3.228-5.596 16.017 16.017 0 0 0-5.181-3.864Zm-6.968 38.957h-3.872a24.073 24.073 0 0 1-5.739 0c-.213 0-.347-.267-.48-.426a1.277 1.277 0 0 1 0-.48 2.34 2.34 0 0 1 0-1.066c.098-.26.275-.484.507-.64a4.703 4.703 0 0 1 1.895-.666c1.257-.184 2.522-.3 3.791-.346 2.23-.31 4.488-.354 6.728-.133.56 0 2.482.906 2.349 1.838a2.823 2.823 0 0 1-2.323 2.159c-.827 0-1.788-.187-2.856-.24Zm12.867-21.637a16.53 16.53 0 0 1-2.67 6.608c-.39.511-.818.992-1.28 1.44-.759.69-1.561 1.331-2.403 1.918-.267.213-1.362.56-1.736.88a1.2 1.2 0 0 0-.453.639 4.415 4.415 0 0 0-.214 1.705c.015.642.068 1.283.16 1.919a26.956 26.956 0 0 0-8.302-.24 31.55 31.55 0 0 0-4.165.426c-.463.101-.918.235-1.362.4v-.24c0-.746.16-2.025.134-3.091 0-.577-.118-1.149-.347-1.679a2.053 2.053 0 0 0-.587-.64c-.534-.292-1.362-.719-1.522-.719a9.262 9.262 0 0 1-1.228-1.066 7.995 7.995 0 0 1-.988-1.279 15.092 15.092 0 0 1-2.109-5.649 14.176 14.176 0 0 1 .267-5.888 16.142 16.142 0 0 1 4.218-7.168 15.544 15.544 0 0 1 7.101-4.157 14.975 14.975 0 0 1 10.305 1.226 13.052 13.052 0 0 1 6.914 7.54 14.87 14.87 0 0 1 .268 7.115Z" fill="#343434"/><path d="M39.325 26.425a8.735 8.735 0 0 0-1.495-2.292 7.07 7.07 0 0 0-1.602-1.172 4.972 4.972 0 0 0-1.975-.666 4.28 4.28 0 0 0-1.602 0c-.64.293-.934.692-.694 1.252.24.56 1.281.346 1.842.586.38.16.719.407.988.72.298.321.566.669.8 1.039.427.64.776 1.33 1.042 2.052.33.737.589 1.505.774 2.291a6.757 6.757 0 0 1 0 3.171.931.931 0 0 0 .534 1.2.963.963 0 0 0 1.201-.534 9.099 9.099 0 0 0 .748-5.33 9.018 9.018 0 0 0-.56-2.317Z" fill="#343434"/></svg>