<svg width="24" height="25" fill="none" xmlns="http://www.w3.org/2000/svg"><g clip-path="url('#clip0_5237_496')" fill-rule="evenodd" clip-rule="evenodd"><path d="M23.79 5.69A6.31 6.31 0 0 0 19.26.83a7 7 0 0 0-3.67.18 6.52 6.52 0 0 0-3 2 7.84 7.84 0 0 0-1.7 4.79 4.92 4.92 0 0 0 2.23 4.42c.44.29.28-.14-.28 2.2-.44 1.49-.37 1.14-.35 1.29a.52.52 0 0 0 .11.3c.07.1.173.174.29.21.305.084.629.063.92-.06a5.88 5.88 0 0 0 1.25-.82l1.43-1.17a.311.311 0 0 0 .09-.44.32.32 0 0 0-.44-.09l-1.58.94c-.274.173-.558.33-.85.47l.08-.39c.04-.24.07-.48.09-.72 0-.54 0-1.07.09-1.6 0-.15-.12-.21-.22-.33a.93.93 0 0 0-.33-.26 4.29 4.29 0 0 1-1.79-3.94 6.93 6.93 0 0 1 1.63-4.18 5.64 5.64 0 0 1 2.65-1.62A6 6 0 0 1 19 1.88a5.32 5.32 0 0 1 3.81 4.05 6.36 6.36 0 0 1-1.08 5.67 4.51 4.51 0 0 1-1.94 1.36 7.1 7.1 0 0 1-2.44.34.34.34 0 0 0-.33.31.318.318 0 0 0 .195.305.32.32 0 0 0 .125.025 7.778 7.778 0 0 0 2.68-.3 5.16 5.16 0 0 0 2.31-1.52 7.22 7.22 0 0 0 1.46-6.43Z" fill="#036"/><path d="M2.38 12.64A5.48 5.48 0 0 0 4 13.5c1.56.55 1.41.15 1.8.62l1.11 1.46.88 1.06c.1.129.21.249.33.36a.61.61 0 0 0 .653.099A.66.66 0 0 0 9 16.94c.13-.2.224-.419.28-.65l.06-.49-.07-1-.04-1.4a2.75 2.75 0 0 0 .86-.12c.114-.043.221-.1.32-.17.099-.066.19-.143.27-.23.183-.209.346-.433.49-.67a.33.33 0 0 0 0-.45.32.32 0 0 0-.45 0c-.3.2-.62.3-.91.46a1.84 1.84 0 0 0-.22.17c-.2.16-.33.34-.53.48-.2.14 0 0-.15 0a.32.32 0 0 0-.34.3l-.14 1.59-.09.93-.78-.73-1.32-1.2c-.19-.22-.08-.42-.37-.47a7.306 7.306 0 0 1-1.61-.45 4.33 4.33 0 0 1-1.37-.83 3.441 3.441 0 0 1-.59-.72 7.173 7.173 0 0 1-.45-.79 7.86 7.86 0 0 1-.62-1.7 5.6 5.6 0 0 1-.17-1.74 5.86 5.86 0 0 1 1.2-3.26A6.24 6.24 0 0 1 5 1.69a5.2 5.2 0 0 1 1.26-.31 6.35 6.35 0 0 1 1.31 0A6.72 6.72 0 0 1 9 1.6a7.25 7.25 0 0 1 1.31.54.29.29 0 0 0 .417-.216.28.28 0 0 0-.147-.284A8.29 8.29 0 0 0 9.15.99a7.65 7.65 0 0 0-1.5-.36A7.2 7.2 0 0 0 6.19.57a6.33 6.33 0 0 0-1.47.27A6.77 6.77 0 0 0 0 6.97a6.65 6.65 0 0 0 .27 2 9.68 9.68 0 0 0 .78 1.85c.199.39.433.762.7 1.11.184.258.395.497.63.71ZM15 10.24a.318.318 0 0 0 .36.28 4 4 0 0 0 2.07-.63c.232.127.477.227.73.3.422.125.854.215 1.29.27a.32.32 0 1 0 .14-.62 9 9 0 0 1-.94-.34 4.217 4.217 0 0 1-.45-.28c.131-.145.248-.303.35-.47.157-.277.278-.572.36-.88l.19-1.54c.35 0 .71-.06 1.06-.11a3.92 3.92 0 0 0 .66-.15.32.32 0 0 0 .23-.39.33.33 0 0 0-.39-.23 3.38 3.38 0 0 1-.55 0c-.48 0-1-.1-1.45-.1h-.92c-.08-.16-.12-.31-.21-.46a1.34 1.34 0 0 0-.22-.31 3.06 3.06 0 0 0-.6-.38.284.284 0 1 0-.44.36c.043.2.096.397.16.59.038.078.085.152.14.22a.2.2 0 0 0 .07.06l-.5.07-.92.17c-.193.01-.387.01-.58 0a.28.28 0 0 0-.31.26.27.27 0 0 0 .25.3l1 .09a2.349 2.349 0 0 0 0 .26c.017.284.06.565.13.84a5 5 0 0 0 .51 1.3c.11.167.238.32.38.46a3.73 3.73 0 0 1-1.35.63.32.32 0 0 0-.25.43Zm1.27-3.69v-.11h1.21c.4 0 .67 0 1-.09L18 7.5a4.6 4.6 0 0 1-.61.94h-.05a1.478 1.478 0 0 1-.1-.13 5.122 5.122 0 0 1-.73-1.16 3.529 3.529 0 0 1-.24-.6Z" fill="#036"/><path d="M5.74 5.28c.163.015.327.015.49 0 .16 0 .31-.06.47-.09l.59-.14a.32.32 0 0 0 .39-.23.31.31 0 0 0-.22-.39l-.77-.16-.4-.06h-.63c-.32.07-.6.19-.91.26a.43.43 0 0 0-.44.47l-.09 2.42v1.88c.017.223.1.436.24.61a1.07 1.07 0 0 0 .86.36l.72-.1.62-.11 1.17-.15a.32.32 0 0 0-.14-.62H6.61L6 9.24h-.71a.61.61 0 0 1 0-.14v-.73l-.12-1v-.14c.157.075.321.132.49.17.11.044.224.077.34.1.12.01.24.01.36 0a3.78 3.78 0 0 0 .83-.24.32.32 0 0 0 .142-.573.32.32 0 0 0-.242-.057c-.25 0-.48-.11-.75-.14a2.19 2.19 0 0 0-.51 0 3.21 3.21 0 0 0-.74.01l-.2-1.4c.278.084.562.144.85.18ZM19.87 19.5c-1 .31-2.17.54-3.26.9-.742.227-1.459.529-2.14.9-3 1.64-2.52 3.05-2.56 2.12l-.05-1.88v-1.23c0-.41 0-.83-.06-1.24-.07-.83-.21-1.64-.36-2.47a.28.28 0 1 0-.56 0c0 1-.12 2-.11 3 0 .66.08 1.32.14 2l.37 1.9v.05l-.7-.48a4.78 4.78 0 0 0-.84-.37c-.41-.14-.83-.24-1.24-.37A10.18 10.18 0 0 0 7.24 22c-.409-.088-.823-.152-1.24-.19l-1.61-.19-.84-.19c-.29-.07-.44-.13-.51-.28a6.18 6.18 0 0 1-.11-1.48l-.32-2.17c-.07-.68-.12-1.35-.21-2a12.736 12.736 0 0 0-.24-1.35.3.3 0 0 0-.34-.22.27.27 0 0 0-.21.34c.066.408.11.818.13 1.23 0 .66 0 1.32.05 2l.11 2.25a7.26 7.26 0 0 0 .1 1.81 1.58 1.58 0 0 0 1.26.94l.91.2c.29.05.58.08.88.11h.88c.395 0 .789.028 1.18.08.397.055.791.132 1.18.23.41.1.83.17 1.24.28.253.069.5.156.74.26l1.16.71s.53.14.66-.05a6.899 6.899 0 0 1 2.07-1.66c.29-.16.59-.31.89-.45.46-.22.92-.42 1.39-.62 1.23-.51 2.48-1 3.64-1.47a.3.3 0 0 0 .19-.4.31.31 0 0 0-.4-.22ZM21 14.6a.27.27 0 0 0-.27-.29.279.279 0 0 0-.29.28c-.114.611-.187 1.23-.22 1.85-.02.36-.02.72 0 1.08 0 .55.1 1.07.09 1.61a.32.32 0 0 0 .28.36.31.31 0 0 0 .35-.27c.14-.538.237-1.086.29-1.64a4.23 4.23 0 0 0 0-.71c.015-.23.015-.46 0-.69-.08-.54-.23-1.05-.23-1.58Z" fill="#036"/><path d="M16.19 17.96c-.36.14-.72.25-1.07.42a9.003 9.003 0 0 0-1.47 1 .28.28 0 1 0 .28.48c.6-.25 1.23-.38 1.85-.59.27-.09.52-.21.78-.31s.62-.36 1-.5c.19-.088.392-.146.6-.17a.32.32 0 0 0 .34-.29.319.319 0 0 0-.3-.34 2.15 2.15 0 0 0-.87 0c-.385.079-.766.179-1.14.3ZM4.9 19.96c.47.14 1 .31 1.52.42.29.05.59.08.87.12.424.026.842.114 1.24.26a.323.323 0 1 0 .34-.55 4.001 4.001 0 0 0-1.52-.71 3.902 3.902 0 0 0-1-.13c-.5 0-1 .07-1.41.08a.27.27 0 0 0-.31.24.28.28 0 0 0 .27.27ZM6 18.18c.15.05.304.09.46.12.15 0 .31.06.46.09.38.06.75.09 1.11.16a.315.315 0 1 0 .22-.59 6.996 6.996 0 0 0-1.06-.54 4.56 4.56 0 0 0-.48-.17 2.991 2.991 0 0 0-.51-.08 6.063 6.063 0 0 0-1.2.07.272.272 0 0 0-.271.146A.29.29 0 0 0 5 17.8c.32.1.64.26 1 .38ZM17.12 15.89a4.262 4.262 0 0 0-1.48.08 3.14 3.14 0 0 0-.61.21c-.19.096-.371.21-.54.34a5.946 5.946 0 0 0-1 1.07.283.283 0 0 0 .39.41c.435-.273.89-.513 1.36-.72.29-.15.56-.31.86-.43.32-.145.655-.252 1-.32a.321.321 0 0 0 .02-.64Z" fill="#343434"/></g><defs><clipPath id="clip0_5237_496"><path fill="#fff" transform="translate(0 .5)" d="M0 0h24v24H0z"/></clipPath></defs></svg>