<svg width="24" height="25" fill="none" xmlns="http://www.w3.org/2000/svg"><g clip-path="url('#clip0_5241_262')" fill="#036"><path d="M16.45 5.57a.41.41 0 0 0-.4.32c-.26.37-3.56 5-4.45 6.43-.29.45-.62.92-.91 1.33-.33.47-.63.9-.89 1.32l-.57.94-.12.2c-1.13-1.77-2.67-3-3-2.87h-.15v.12a.39.39 0 0 0 0 .28A6.73 6.73 0 0 0 8.7 17.5a.63.63 0 0 0 .36.13.61.61 0 0 0 .36-.13c.15-.12 1-1.44 1.63-2.34.63-.9 1.26-2 1.68-2.66.42-.66 3.27-5 3.6-5.56.52-.8.52-.93.52-1a.4.4 0 0 0-.4-.37ZM12.21.5a.84.84 0 0 0-.56.71c-.06 1 0 1.42.23 1.61a.35.35 0 0 0 .24.08h.12c.22-.06.26-.29.32-.63.05-.3.13-.596.24-.88.18-.4.09-.63 0-.75a.54.54 0 0 0-.59-.14ZM20.6 4.19a.84.84 0 0 0-.9.11c-.73.65-1 1-1 1.3a.41.41 0 0 0 .21.3.28.28 0 0 0 .15 0 1 1 0 0 0 .52-.26 3.67 3.67 0 0 1 .81-.47c.42-.16.51-.38.52-.54a.51.51 0 0 0-.31-.44ZM24 12.71a.84.84 0 0 0-.71-.56c-1-.06-1.42 0-1.61.23a.42.42 0 0 0-.07.36c.06.22.29.26.63.32.311.047.616.128.91.24a1 1 0 0 0 .41.11.51.51 0 0 0 .34-.12.54.54 0 0 0 .1-.58ZM18.9 19.23a.41.41 0 0 0-.3.21c-.11.19 0 .38.22.67.19.249.349.521.47.81.16.42.38.51.54.52a.53.53 0 0 0 .46-.34.84.84 0 0 0-.11-.9c-.63-.7-.99-1-1.28-.97ZM11.76 22.07c-.22.06-.26.29-.32.63a4.399 4.399 0 0 1-.24.91c-.18.4-.09.63 0 .75a.481.481 0 0 0 .35.14.622.622 0 0 0 .23 0 .83.83 0 0 0 .56-.71c.06-1 0-1.42-.23-1.61a.42.42 0 0 0-.35-.11ZM5.06 19.1c-.19-.11-.38 0-.67.22-.249.19-.521.349-.81.47-.42.16-.51.38-.52.54a.51.51 0 0 0 .34.48.91.91 0 0 0 .37.08.79.79 0 0 0 .53-.19c.73-.65 1-1 1-1.3a.41.41 0 0 0-.24-.3ZM1.8 11.94a4.398 4.398 0 0 1-.91-.24c-.41-.18-.63-.09-.75 0a.52.52 0 0 0-.1.57.83.83 0 0 0 .71.56h.62c.56 0 .85-.07 1-.25a.42.42 0 0 0 .07-.36c-.07-.18-.3-.22-.64-.28ZM4.71 4.08c-.16-.42-.38-.51-.54-.52a.5.5 0 0 0-.48.34.84.84 0 0 0 .11.9c.62.7 1 1 1.25 1a.41.41 0 0 0 .3-.21c.11-.19 0-.38-.22-.67a3.67 3.67 0 0 1-.42-.84Z"/></g><defs><clipPath id="clip0_5241_262"><path fill="#fff" transform="translate(0 .5)" d="M0 0h24v24H0z"/></clipPath></defs></svg>