<svg width="60" height="60" fill="none" xmlns="http://www.w3.org/2000/svg"><rect width="60" height="60" rx="12" fill="#036"/><path d="m31.45 18.312-.802.475c-.882.522-1.322.783-1.808.844-.485.06-.96-.085-1.91-.378l-.866-.266c-3.345-1.03-5.017-1.544-6.022-.624s-.678 2.665-.023 6.156l.17.903c.186.992.28 1.488.169 1.973-.11.484-.412.902-1.015 1.739l-.549.761c-2.121 2.944-3.182 4.416-2.664 5.636.517 1.22 2.27 1.38 5.776 1.701l.907.083c.996.091 1.495.137 1.912.376.417.238.706.643 1.284 1.453l.526.736c2.033 2.849 3.05 4.273 4.375 4.107 1.325-.166 2.08-1.812 3.592-5.105l.391-.851c.22-.478.383-.834.54-1.113l6.425 6.425a1.05 1.05 0 0 0 1.485-1.486l-6.205-6.204c.17-.062.361-.129.576-.204l.874-.306c3.378-1.183 5.067-1.775 5.369-3.098.301-1.322-.985-2.5-3.556-4.856l-.666-.61c-.73-.669-1.096-1.003-1.285-1.45-.19-.447-.182-.956-.167-1.973l.014-.926c.055-3.58.082-5.37-1.057-6.021-1.139-.652-2.69.267-5.79 2.103Z" fill="#FBFBFB"/></svg>