<svg width="24" height="25" fill="none" xmlns="http://www.w3.org/2000/svg"><path d="M11.287 2.707c-.12-.32-.2-.27-2.12-1.86a.35.35 0 0 0-.43.55c2.43 2.11 1.82 1.28 1.78 2.73a26.925 26.925 0 0 1-.25 4.1c-.073.463-.177.92-.31 1.37a1.24 1.24 0 0 1-.2.21h-.16c-.969.05-1.94.05-2.91 0a36.098 36.098 0 0 1-3.87-.26c.56-1.84.53-4.25.71-7.89 1.23-.23 3.3-.48 3.77-.53a.317.317 0 0 0-.13-.62c-1.72.14-1 .07-3.34.32-1.35.21-1.06-.18-1.59 5.8a11.15 11.15 0 0 1-.75 3.16.59.59 0 0 0 .46.87c1.576.204 3.162.318 4.75.34 3.62-.06 4.42.61 4.66-3.72 0-4.03.13-4.18-.07-4.57ZM23.337 3.247c0-.84-.39-.86-2.28-2.4a.35.35 0 0 0-.38 0c-5.27-.16-5.78-.06-6 .51-.22.57-.39 5.06-.8 7-.35 1.65-.7 1.6-.47 2.05a.56.56 0 0 0 .47.31c1 .1 1.91.21 2.82.27.91.06 4 .11 4.71 0 1.46-.16 1.58-1.08 1.77-2.58.152-1.408.19-2.826.11-4.24 0-.24.06-.61.05-.92Zm-.81.12c0 .28-.07.58-.08.76a21.73 21.73 0 0 1-.45 5.11.79.79 0 0 1-.33.6c-.19.14-4.64-.06-4.88-.08-.67-.05-1.33-.12-2-.19.58-1.88.55-4.32.73-7.86a36.002 36.002 0 0 1 5.15-.28l1.2 1c.61.59.69.46.66.94ZM10.018 15.417c-1.35-1.1-1.41-1.24-1.68-1.09-1.88-.06-5.22-.23-5.81.23-.59.46-.44 6.95-1.45 8.74a.59.59 0 0 0 .46.88c1.575.201 3.161.311 4.75.33 3.63-.07 4.4.61 4.66-3.71 0-5.23.34-4.29-.93-5.38Zm.15 1.46c0 .28-.07.58-.08.76a21.73 21.73 0 0 1-.45 5.11c-.07.29 0 .36-.33.6s-4.65-.06-4.88-.08c-.67-.05-1.33-.12-2-.19.56-1.82.53-3.93.73-7.86 1.717-.22 3.449-.31 5.18-.27l1.2 1c.63.56.68.45.63.93ZM21.938 15.417c-1.35-1.1-1.4-1.24-1.67-1.09-1.87-.06-5.23-.23-5.81.23-.58.46-.41 6.83-1.45 8.74a.59.59 0 0 0 .45.88c1.579.198 3.168.305 4.76.32 3.63-.07 4.4.61 4.65-3.71 0-5.22.35-4.28-.93-5.37Zm.23 1.46c0 .28-.08.58-.08.76a21.28 21.28 0 0 1-.46 5.11.76.76 0 0 1-.33.6c-.18.14-4.64-.06-4.88-.08-.66-.05-1.32-.12-2-.19.57-1.82.54-4 .74-7.86 1.714-.22 3.442-.31 5.17-.27l1.2 1c.53.56.64.45.64.93Z" fill="#036"/><path fill-rule="evenodd" clip-rule="evenodd" d="M6.567 4.507h.94c1.49-.18 1.66-.12 1.66-.34 0-.22-1.37-.39-1.91-.39h-1c-1.67.16-1.65.21-1.66.34.07.32 1.64.39 1.97.39ZM6.398 7.187h.94c1.5-.1 1.65 0 1.7-.26.05-.26-1.36-.42-1.87-.42a7.72 7.72 0 0 0-1 0c-1.67.15-1.64.21-1.65.33-.02.3 1.56.35 1.88.35ZM6.107 18.377h.94c1.5-.11 1.65 0 1.7-.27.05-.27-1.37-.39-1.9-.4-.32 0-.64 0-1 .05-1.67.15-1.64.21-1.66.33-.02.24 1.6.29 1.92.29ZM5.948 21.087h.93c1.5-.11 1.66-.05 1.7-.27.04-.22-1.36-.39-1.9-.4-.32 0-.64 0-1 .05-1.67.16-1.65.21-1.66.34.02.23 1.6.28 1.93.28ZM17.928 18.737c.32 0 .63 0 .94-.05 1.5-.1 1.66-.05 1.7-.26.04-.21-1.36-.4-1.9-.4a7.484 7.484 0 0 0-.95.05c-1.68.15-1.65.21-1.66.33-.03.28 1.55.33 1.87.33ZM17.768 21.437c.31 0 .62 0 .93-.05 1.5-.1 1.66-.05 1.7-.26.04-.21-1.36-.4-1.9-.4-.32 0-.64 0-.95.05-1.67.15-1.65.21-1.66.33-.03.28 1.55.33 1.88.33ZM18.348 4.667h.94c1.49-.11 1.65-.05 1.7-.27.05-.22-1.37-.39-1.91-.4-.31 0-.63 0-.95.05-1.67.16-1.65.21-1.66.34-.03.23 1.55.28 1.88.28ZM18.168 7.367c.32 0 .63 0 .94-.05 1.5-.11 1.65 0 1.7-.26.05-.26-1.37-.4-1.9-.4h-1c-1.67.16-1.64.21-1.65.34-.01.13 1.6.37 1.91.37Z" fill="#343434"/></svg>