<svg width="24" height="25" fill="none" xmlns="http://www.w3.org/2000/svg"><g clip-path="url('#clip0_5237_459')"><path d="M18.83 7.75a8.897 8.897 0 0 0-.91-.71l.08-.07c.06-.07.18-.13.27-.22.11-.125.204-.262.28-.41.05-.1.09-.2.13-.29l.56.3c.116.082.24.153.37.21.2.06.33 0 .39 0s.15-.14.13-.28a.35.35 0 0 0-.2-.31c0-.06-.14-.18-.16-.21l-.51-.58a5.797 5.797 0 0 0-.61-.47c-.17-.1-.35-.15-.52-.23-.57-.23-.7-.34-.9-.26-.2.08-.3.26 0 .57.153.173.317.337.49.49.12.1.22.22.33.33l-.11.06c-.13.12-.31.19-.44.32a1.62 1.62 0 0 0-.31.44v.16a11.67 11.67 0 0 0-4.39-1.33V5.1c.01-.123.01-.247 0-.37.014-.12.014-.24 0-.36 0-.23-.11-.48-.19-.8.57 0 1.14-.1 1.72-.19a.3.3 0 0 0 .27-.32.3.3 0 0 0-.33-.27c-.76.045-1.52.045-2.28 0a9 9 0 0 1-1.44-.29 1.21 1.21 0 0 1-.43-.23c-.1-.07-.24-.12-.2-.23a.71.71 0 0 1 .31-.27.66.66 0 0 1 .28-.09c.65-.05 1.39-.15 2.1-.19.286-.015.573-.015.86 0 .273-.016.547-.016.82 0a.91.91 0 0 1 .38.13.41.41 0 0 1 .17.26.891.891 0 0 1 0 .43.34.34 0 0 0 .24.42.34.34 0 0 0 .42-.23c.085-.3.085-.62 0-.92a1.14 1.14 0 0 0-.38-.59 1.7 1.7 0 0 0-.68-.32 6.65 6.65 0 0 0-.91-.12A8.91 8.91 0 0 0 12.27.5c-.62 0-1.25.05-1.82.06a1.77 1.77 0 0 0-.94.33 1.82 1.82 0 0 0-.67.8 1.15 1.15 0 0 0 .28 1.2c.341.32.769.531 1.23.61a10.07 10.07 0 0 0 1.55.08c-.07.3-.13.54-.17.76a2.626 2.626 0 0 0 0 .37v.37a.249.249 0 0 0 0 .07 13.45 13.45 0 0 0-2.58.14 8.14 8.14 0 0 0-6.39 5.88 11.53 11.53 0 0 0 .75 8.74c1.72 3.22 6.11 4.91 10.16 4.48 9.95-1.01 9.44-12.78 5.16-16.64Zm-.37 13.91c-1 1.21-3.47 1.74-6.46 1.9-2.99.16-4.76-1.4-6.77-3a4.999 4.999 0 0 1-.71-1.07 10.55 10.55 0 0 1-.63-7.88 8.25 8.25 0 0 1 2-3.4 7.46 7.46 0 0 1 3.47-1.82 12.54 12.54 0 0 1 4.91.11 12.17 12.17 0 0 1 4 1.91 11 11 0 0 1 2.55 6.71c.06 2.63-.82 5.26-2.36 6.54Z" fill="#036"/><path d="M12.2 22.25s-.06-1.46-.41-1.46c-.11 0-.19.06-.29.18a2.26 2.26 0 0 0-.15.58 1.702 1.702 0 0 0-.06.5c.004.162.024.322.06.48a.62.62 0 0 0 .37.19c.48 0 .47-.32.48-.47ZM12.2 7.5s-.06 1.46-.41 1.46c-.11 0-.19 0-.29-.18a2.163 2.163 0 0 1-.15-.58 1.622 1.622 0 0 1-.06-.49c.005-.165.025-.329.06-.49a.62.62 0 0 1 .37-.19c.48-.01.47.32.48.47ZM18.55 14.02c-.34.07-.64.22-1 .28a.27.27 0 0 0 0 .54c.363.06.732.08 1.1.06.2 0 .41-.06.63-.07l.3-.06a.43.43 0 0 0 .06-.52.52.52 0 0 0-.36-.27 3.094 3.094 0 0 0-.73.04ZM17.65 19.79a5.01 5.01 0 0 0-.34-.43 3.48 3.48 0 0 0-.48-.43 4.731 4.731 0 0 0-.5-.35.49.49 0 0 0-.22-.08.27.27 0 0 0-.27.27c0 .13-.06 0 .46.69.08.11.15.26.26.41.106.14.223.27.35.39a.458.458 0 0 0 .34.14c.3-.07.56-.39.4-.61ZM16.08 9.25c-.08.15-.14.3-.2.42s-.25.37-.3.51a.51.51 0 0 0-.05.2.27.27 0 0 0 .27.27s.06.09.7-.53l.28-.3a3.37 3.37 0 0 0 .38-.62.25.25 0 0 0 0-.21c-.06-.32-.25-.43-.64-.29-.08.07-.1 0-.17.13a2.78 2.78 0 0 0-.27.42ZM5.69 13.85c.33.07.63.22 1 .28a.27.27 0 1 1 0 .54 4.555 4.555 0 0 1-1.1.06c-.21 0-.42-.06-.64-.07l-.3-.06a.43.43 0 0 1-.06-.52c.18-.26.36-.27.36-.27.247-.015.496-.002.74.04ZM6.3 19.34a2.998 2.998 0 0 1 .82-.84c.159-.127.326-.244.5-.35a.49.49 0 0 1 .22-.08.27.27 0 0 1 .27.27c0 .13.06 0-.46.69-.08.11-.15.26-.26.41-.106.14-.223.27-.35.39a.46.46 0 0 1-.34.14c-.3-.09-.56-.41-.4-.63ZM8.15 9.25c.08.15.14.3.2.42s.25.37.3.51a.38.38 0 0 1 0 .2.27.27 0 0 1-.26.27s-.07.09-.71-.53l-.27-.3a3.457 3.457 0 0 1-.17-.32c-.06-.1-.11-.2-.16-.3a.3.3 0 0 1 0-.21c.06-.32.26-.43.64-.29.08.07.1 0 .18.13.096.132.18.273.25.42Z" fill="#343434"/></g><defs><clipPath id="clip0_5237_459"><path fill="#fff" transform="translate(0 .5)" d="M0 0h24v24H0z"/></clipPath></defs></svg>