<svg width="24" height="25" fill="none" xmlns="http://www.w3.org/2000/svg"><g clip-path="url('#clip0_5237_489')" fill-rule="evenodd" clip-rule="evenodd"><path d="M9.86 15.24a6.18 6.18 0 0 0 2.57.28 5.47 5.47 0 0 0 4-9 5.71 5.71 0 0 0-9.15.57c-1.61 2.39-.77 5.89.83 6.92a.312.312 0 1 0 .36-.51c-1.28-.9-1.86-4-.41-5.89a4.81 4.81 0 0 1 7.51-.39c2.37 2.81 1 7.08-3.21 7.57a5.52 5.52 0 0 1-2.29-.16.341.341 0 0 0-.528.16.34.34 0 0 0 .318.45Z" fill="#343434"/><path d="M23.64 6.3c-.12-1.09-.07-3.27-.92-3.87-1.91-1.36-6-1-8.81-1.09-3.48-.12-7.21.16-10.62.25a.34.34 0 1 0 0 .67c3.46 0 7.07-.26 10.58-.08 2.43.13 6.67-.13 8.26 1 .38.28.39 2.46.47 3.2a34.84 34.84 0 0 1 .07 8.1 12.104 12.104 0 0 1-.44 2.64c-2.4 1.22-19.71 2.24-20.75.56a17.261 17.261 0 0 1-.64-4.15 57.52 57.52 0 0 1 .6-10.84c.29-.27-.12-.71-.4-.44-.43.39-.35 1.63-.42 2.07A44.13 44.13 0 0 0 .1 14.5a14.83 14.83 0 0 0 .61 3.68c.84 1.41 6.35 1.46 8 1.47a4.32 4.32 0 0 0-.89 3l-2.16.15a.3.3 0 0 0 0 .6c2 .07 3.52.27 6 .25 2.48-.02 4.06-.23 6.07-.38a.342.342 0 0 0 .398-.335.34.34 0 0 0-.398-.335h-1.84a8.437 8.437 0 0 0-1-3.15 45.243 45.243 0 0 0 6.76-.88c1.45-.37 1.71-.74 1.9-1.81.578-3.46.609-6.99.09-10.46Zm-8.52 16.3c-2.85-.07-4.25-.09-6.55 0 .16-.39.4-.91.51-1.29.143-.541.243-1.093.3-1.65 0-.12.27.08 4.68-.19a6.761 6.761 0 0 0 1.06 3.13Z" fill="#036"/><path d="M9.36 10.16s-.58.17-.35.5c.39.59 1.06 1.62 1.72 1.66 1.13.06 2.46-3.07 2.94-4.09a1 1 0 0 0 .27-.57.35.35 0 0 0-.64-.16c-.24.28-2.68 3.82-2.62 3.91-.19.03-1.18-1.16-1.32-1.25Z" fill="#036"/></g><defs><clipPath id="clip0_5237_489"><path fill="#fff" transform="translate(0 .5)" d="M0 0h24v24H0z"/></clipPath></defs></svg>